<?xml version="1.0" encoding="UTF-8" standalone="no"?><svg xmlns="http://www.w3.org/2000/svg" xmlns:xlink="http://www.w3.org/1999/xlink" contentScriptType="application/ecmascript" contentStyleType="text/css" height="564px" preserveAspectRatio="none" style="width:576px;height:564px;" version="1.1" viewBox="0 0 576 564" width="576px" zoomAndPan="magnify"><defs><filter height="300%" id="f82vhnatvy1jk" width="300%" x="-1" y="-1"><feGaussianBlur result="blurOut" stdDeviation="2.4000000953674316"/><feColorMatrix in="blurOut" result="blurOut2" type="matrix" values="0 0 0 0 0 0 0 0 0 0 0 0 0 0 0 0 0 0 .4 0"/><feOffset dx="4.800000190734863" dy="4.800000190734863" in="blurOut2" result="blurOut3"/><feBlend in="SourceGraphic" in2="blurOut3" mode="normal"/></filter></defs><g><!--cluster ##7844--><!--cluster ##7853--><!--class Drawable--><rect fill="#FEFECE" filter="url(#f82vhnatvy1jk)" height="74.2031" id="Drawable" style="stroke: #A80036; stroke-width: 1.8000000715255737;" width="156" x="200.4" y="48"/><ellipse cx="242.7" cy="67.2" fill="#B4A7E5" rx="13.2" ry="13.2" style="stroke: #A80036; stroke-width: 1.2000000476837158;"/><path d="M243.9,63.6 L243.9,70.8 L246.3,70.8 L246.8813,70.8 L247.5,71.55 L247.5,72 L247.5,72.45 L246.8813,73.2 L246.3,73.2 L239.1,73.2 L238.5188,73.2 L237.9,72.45 L237.9,72 L237.9,71.55 L238.5188,70.8 L239.1,70.8 L241.5,70.8 L241.5,63.6 L239.1,63.6 L238.5188,63.6 L237.9,62.85 L237.9,62.4 L237.9,61.95 L238.5188,61.2 L239.1,61.2 L246.3,61.2 L246.8813,61.2 L247.5,61.95 L247.5,62.4 L247.5,62.85 L246.8813,63.6 L246.3,63.6 L243.9,63.6 Z "/><text fill="#000000" font-family="sans-serif" font-size="14.4" font-style="italic" lengthAdjust="spacingAndGlyphs" textLength="63.6" x="264.9" y="73.0922">Drawable</text><line style="stroke: #A80036; stroke-width: 1.8000000715255737;" x1="201.6" x2="355.2" y1="86.4" y2="86.4"/><line style="stroke: #A80036; stroke-width: 1.8000000715255737;" x1="201.6" x2="355.2" y1="96" y2="96"/><ellipse cx="213.6" cy="110.9016" fill="#84BE84" rx="3.6" ry="3.6" style="stroke: #038048; stroke-width: 1.2000000476837158;"/><text fill="#000000" font-family="sans-serif" font-size="13.2" font-style="italic" lengthAdjust="spacingAndGlyphs" textLength="124.8" x="224.4" y="114.5027">getVertices() : Point[]</text><!--class Point--><rect fill="#FEFECE" filter="url(#f82vhnatvy1jk)" height="90.8063" id="Point" style="stroke: #A80036; stroke-width: 1.8000000715255737;" width="72" x="273.6" y="195.6"/><ellipse cx="291.6" cy="214.8" fill="#ADD1B2" rx="13.2" ry="13.2" style="stroke: #A80036; stroke-width: 1.2000000476837158;"/><path d="M294,210.6 Q294.2438,210 294.525,209.7 Q294.8063,209.4 295.125,209.4 Q295.6875,209.4 296.0438,209.7375 Q296.4,210.075 296.4,210.8625 L296.4,212.7375 Q296.4,213.525 296.0625,213.8625 Q295.725,214.2 295.2,214.2 Q294.7313,214.2 294.4313,213.9938 Q294.1313,213.7875 294,213.2438 Q293.9438,212.8688 293.7375,212.6625 Q293.3625,212.2688 292.6875,212.0344 Q292.0125,211.8 291.3375,211.8 Q290.4938,211.8 289.7906,212.1375 Q289.0875,212.475 288.5438,213.225 Q288,213.975 288,215.0063 L288,216.1125 Q288,217.35 289.0125,218.175 Q290.025,219 291.825,219 Q292.8938,219 293.6438,218.7563 Q294.075,218.625 294.5625,218.1938 Q294.8813,217.95 295.05,217.875 Q295.2188,217.8 295.425,217.8 Q295.8188,217.8 296.1094,218.1094 Q296.4,218.4188 296.4,218.85 Q296.4,219.2625 295.9875,219.75 Q295.3875,220.4625 294.4313,220.8563 Q293.175,221.4 291.6375,221.4 Q289.8375,221.4 288.3938,220.6875 Q287.2313,220.125 286.4156,218.9063 Q285.6,217.6875 285.6,216.2438 L285.6,214.9313 Q285.6,213.4313 286.3219,212.1188 Q287.0438,210.8063 288.3094,210.1031 Q289.575,209.4 291,209.4 Q291.8625,209.4 292.6125,209.7 Q293.3625,210 294,210.6 Z "/><text fill="#000000" font-family="sans-serif" font-size="14.4" lengthAdjust="spacingAndGlyphs" textLength="33.6" x="308.4" y="220.6922">Point</text><line style="stroke: #A80036; stroke-width: 1.8000000715255737;" x1="274.8" x2="344.4" y1="234" y2="234"/><rect fill="none" height="7.2" style="stroke: #C82930; stroke-width: 1.2000000476837158;" width="7.2" x="283.2" y="245.3016"/><text fill="#000000" font-family="sans-serif" font-size="13.2" lengthAdjust="spacingAndGlyphs" textLength="31.2" x="297.6" y="252.5027">x : int</text><rect fill="none" height="7.2" style="stroke: #C82930; stroke-width: 1.2000000476837158;" width="7.2" x="283.2" y="261.9047"/><text fill="#000000" font-family="sans-serif" font-size="13.2" lengthAdjust="spacingAndGlyphs" textLength="31.2" x="297.6" y="269.1059">y : int</text><line style="stroke: #A80036; stroke-width: 1.8000000715255737;" x1="274.8" x2="344.4" y1="276.8063" y2="276.8063"/><!--class Panel--><rect fill="#FEFECE" filter="url(#f82vhnatvy1jk)" height="57.6" id="Panel" style="stroke: #A80036; stroke-width: 1.8000000715255737;" width="76.8" x="45.6" y="56.4"/><ellipse cx="63.6" cy="75.6" fill="#ADD1B2" rx="13.2" ry="13.2" style="stroke: #A80036; stroke-width: 1.2000000476837158;"/><path d="M66,71.4 Q66.2438,70.8 66.525,70.5 Q66.8063,70.2 67.125,70.2 Q67.6875,70.2 68.0438,70.5375 Q68.4,70.875 68.4,71.6625 L68.4,73.5375 Q68.4,74.325 68.0625,74.6625 Q67.725,75 67.2,75 Q66.7313,75 66.4313,74.7938 Q66.1313,74.5875 66,74.0438 Q65.9438,73.6688 65.7375,73.4625 Q65.3625,73.0688 64.6875,72.8344 Q64.0125,72.6 63.3375,72.6 Q62.4938,72.6 61.7906,72.9375 Q61.0875,73.275 60.5438,74.025 Q60,74.775 60,75.8063 L60,76.9125 Q60,78.15 61.0125,78.975 Q62.025,79.8 63.825,79.8 Q64.8938,79.8 65.6438,79.5563 Q66.075,79.425 66.5625,78.9938 Q66.8813,78.75 67.05,78.675 Q67.2188,78.6 67.425,78.6 Q67.8188,78.6 68.1094,78.9094 Q68.4,79.2188 68.4,79.65 Q68.4,80.0625 67.9875,80.55 Q67.3875,81.2625 66.4313,81.6563 Q65.175,82.2 63.6375,82.2 Q61.8375,82.2 60.3938,81.4875 Q59.2313,80.925 58.4156,79.7063 Q57.6,78.4875 57.6,77.0438 L57.6,75.7313 Q57.6,74.2313 58.3219,72.9188 Q59.0438,71.6063 60.3094,70.9031 Q61.575,70.2 63,70.2 Q63.8625,70.2 64.6125,70.5 Q65.3625,70.8 66,71.4 Z "/><text fill="#000000" font-family="sans-serif" font-size="14.4" lengthAdjust="spacingAndGlyphs" textLength="38.4" x="80.4" y="81.4922">Panel</text><line style="stroke: #A80036; stroke-width: 1.8000000715255737;" x1="46.8" x2="121.2" y1="94.8" y2="94.8"/><line style="stroke: #A80036; stroke-width: 1.8000000715255737;" x1="46.8" x2="121.2" y1="104.4" y2="104.4"/><!--class SubPanel--><rect fill="#FEFECE" filter="url(#f82vhnatvy1jk)" height="57.6" id="SubPanel" style="stroke: #A80036; stroke-width: 1.8000000715255737;" width="103.2" x="45.6" y="212.4"/><ellipse cx="63.6" cy="231.6" fill="#ADD1B2" rx="13.2" ry="13.2" style="stroke: #A80036; stroke-width: 1.2000000476837158;"/><path d="M66,227.4 Q66.2438,226.8 66.525,226.5 Q66.8063,226.2 67.125,226.2 Q67.6875,226.2 68.0438,226.5375 Q68.4,226.875 68.4,227.6625 L68.4,229.5375 Q68.4,230.325 68.0625,230.6625 Q67.725,231 67.2,231 Q66.7313,231 66.4313,230.7938 Q66.1313,230.5875 66,230.0438 Q65.9438,229.6688 65.7375,229.4625 Q65.3625,229.0688 64.6875,228.8344 Q64.0125,228.6 63.3375,228.6 Q62.4938,228.6 61.7906,228.9375 Q61.0875,229.275 60.5438,230.025 Q60,230.775 60,231.8063 L60,232.9125 Q60,234.15 61.0125,234.975 Q62.025,235.8 63.825,235.8 Q64.8938,235.8 65.6438,235.5563 Q66.075,235.425 66.5625,234.9938 Q66.8813,234.75 67.05,234.675 Q67.2188,234.6 67.425,234.6 Q67.8188,234.6 68.1094,234.9094 Q68.4,235.2188 68.4,235.65 Q68.4,236.0625 67.9875,236.55 Q67.3875,237.2625 66.4313,237.6563 Q65.175,238.2 63.6375,238.2 Q61.8375,238.2 60.3938,237.4875 Q59.2313,236.925 58.4156,235.7063 Q57.6,234.4875 57.6,233.0438 L57.6,231.7313 Q57.6,230.2313 58.3219,228.9188 Q59.0438,227.6063 60.3094,226.9031 Q61.575,226.2 63,226.2 Q63.8625,226.2 64.6125,226.5 Q65.3625,226.8 66,227.4 Z "/><text fill="#000000" font-family="sans-serif" font-size="14.4" lengthAdjust="spacingAndGlyphs" textLength="64.8" x="80.4" y="237.4922">SubPanel</text><line style="stroke: #A80036; stroke-width: 1.8000000715255737;" x1="46.8" x2="147.6" y1="250.8" y2="250.8"/><line style="stroke: #A80036; stroke-width: 1.8000000715255737;" x1="46.8" x2="147.6" y1="260.4" y2="260.4"/><!--class ConvexPolygon--><rect fill="#FEFECE" filter="url(#f82vhnatvy1jk)" height="57.6" id="ConvexPolygon" style="stroke: #A80036; stroke-width: 1.8000000715255737;" width="139.2" x="423.6" y="212.4"/><ellipse cx="441.6" cy="231.6" fill="#ADD1B2" rx="13.2" ry="13.2" style="stroke: #A80036; stroke-width: 1.2000000476837158;"/><path d="M444,227.4 Q444.2438,226.8 444.525,226.5 Q444.8063,226.2 445.125,226.2 Q445.6875,226.2 446.0438,226.5375 Q446.4,226.875 446.4,227.6625 L446.4,229.5375 Q446.4,230.325 446.0625,230.6625 Q445.725,231 445.2,231 Q444.7313,231 444.4313,230.7938 Q444.1313,230.5875 444,230.0438 Q443.9438,229.6688 443.7375,229.4625 Q443.3625,229.0688 442.6875,228.8344 Q442.0125,228.6 441.3375,228.6 Q440.4938,228.6 439.7906,228.9375 Q439.0875,229.275 438.5438,230.025 Q438,230.775 438,231.8063 L438,232.9125 Q438,234.15 439.0125,234.975 Q440.025,235.8 441.825,235.8 Q442.8938,235.8 443.6438,235.5563 Q444.075,235.425 444.5625,234.9938 Q444.8813,234.75 445.05,234.675 Q445.2188,234.6 445.425,234.6 Q445.8188,234.6 446.1094,234.9094 Q446.4,235.2188 446.4,235.65 Q446.4,236.0625 445.9875,236.55 Q445.3875,237.2625 444.4313,237.6563 Q443.175,238.2 441.6375,238.2 Q439.8375,238.2 438.3938,237.4875 Q437.2313,236.925 436.4156,235.7063 Q435.6,234.4875 435.6,233.0438 L435.6,231.7313 Q435.6,230.2313 436.3219,228.9188 Q437.0438,227.6063 438.3094,226.9031 Q439.575,226.2 441,226.2 Q441.8625,226.2 442.6125,226.5 Q443.3625,226.8 444,227.4 Z "/><text fill="#000000" font-family="sans-serif" font-size="14.4" lengthAdjust="spacingAndGlyphs" textLength="100.8" x="458.4" y="237.4922">ConvexPolygon</text><line style="stroke: #A80036; stroke-width: 1.8000000715255737;" x1="424.8" x2="561.6" y1="250.8" y2="250.8"/><line style="stroke: #A80036; stroke-width: 1.8000000715255737;" x1="424.8" x2="561.6" y1="260.4" y2="260.4"/><!--class Rectangle--><rect fill="#FEFECE" filter="url(#f82vhnatvy1jk)" height="57.6" id="Rectangle" style="stroke: #A80036; stroke-width: 1.8000000715255737;" width="105.6" x="440.4" y="362.4"/><ellipse cx="458.4" cy="381.6" fill="#ADD1B2" rx="13.2" ry="13.2" style="stroke: #A80036; stroke-width: 1.2000000476837158;"/><path d="M460.8,377.4 Q461.0438,376.8 461.325,376.5 Q461.6063,376.2 461.925,376.2 Q462.4875,376.2 462.8438,376.5375 Q463.2,376.875 463.2,377.6625 L463.2,379.5375 Q463.2,380.325 462.8625,380.6625 Q462.525,381 462,381 Q461.5313,381 461.2313,380.7938 Q460.9313,380.5875 460.8,380.0438 Q460.7438,379.6688 460.5375,379.4625 Q460.1625,379.0688 459.4875,378.8344 Q458.8125,378.6 458.1375,378.6 Q457.2938,378.6 456.5906,378.9375 Q455.8875,379.275 455.3438,380.025 Q454.8,380.775 454.8,381.8063 L454.8,382.9125 Q454.8,384.15 455.8125,384.975 Q456.825,385.8 458.625,385.8 Q459.6938,385.8 460.4438,385.5563 Q460.875,385.425 461.3625,384.9938 Q461.6813,384.75 461.85,384.675 Q462.0188,384.6 462.225,384.6 Q462.6188,384.6 462.9094,384.9094 Q463.2,385.2188 463.2,385.65 Q463.2,386.0625 462.7875,386.55 Q462.1875,387.2625 461.2313,387.6563 Q459.975,388.2 458.4375,388.2 Q456.6375,388.2 455.1938,387.4875 Q454.0313,386.925 453.2156,385.7063 Q452.4,384.4875 452.4,383.0438 L452.4,381.7313 Q452.4,380.2313 453.1219,378.9188 Q453.8438,377.6063 455.1094,376.9031 Q456.375,376.2 457.8,376.2 Q458.6625,376.2 459.4125,376.5 Q460.1625,376.8 460.8,377.4 Z "/><text fill="#000000" font-family="sans-serif" font-size="14.4" lengthAdjust="spacingAndGlyphs" textLength="67.2" x="475.2" y="387.4922">Rectangle</text><line style="stroke: #A80036; stroke-width: 1.8000000715255737;" x1="441.6" x2="544.8" y1="400.8" y2="400.8"/><line style="stroke: #A80036; stroke-width: 1.8000000715255737;" x1="441.6" x2="544.8" y1="410.4" y2="410.4"/><!--class Square--><rect fill="#FEFECE" filter="url(#f82vhnatvy1jk)" height="57.6" id="Square" style="stroke: #A80036; stroke-width: 1.8000000715255737;" width="86.4" x="450" y="493.2"/><ellipse cx="468" cy="512.4" fill="#ADD1B2" rx="13.2" ry="13.2" style="stroke: #A80036; stroke-width: 1.2000000476837158;"/><path d="M470.4,508.2 Q470.6438,507.6 470.925,507.3 Q471.2063,507 471.525,507 Q472.0875,507 472.4438,507.3375 Q472.8,507.675 472.8,508.4625 L472.8,510.3375 Q472.8,511.125 472.4625,511.4625 Q472.125,511.8 471.6,511.8 Q471.1313,511.8 470.8313,511.5938 Q470.5313,511.3875 470.4,510.8438 Q470.3438,510.4688 470.1375,510.2625 Q469.7625,509.8688 469.0875,509.6344 Q468.4125,509.4 467.7375,509.4 Q466.8938,509.4 466.1906,509.7375 Q465.4875,510.075 464.9438,510.825 Q464.4,511.575 464.4,512.6063 L464.4,513.7125 Q464.4,514.95 465.4125,515.775 Q466.425,516.6 468.225,516.6 Q469.2938,516.6 470.0438,516.3563 Q470.475,516.225 470.9625,515.7938 Q471.2813,515.55 471.45,515.475 Q471.6188,515.4 471.825,515.4 Q472.2188,515.4 472.5094,515.7094 Q472.8,516.0188 472.8,516.45 Q472.8,516.8625 472.3875,517.35 Q471.7875,518.0625 470.8313,518.4563 Q469.575,519 468.0375,519 Q466.2375,519 464.7938,518.2875 Q463.6313,517.725 462.8156,516.5063 Q462,515.2875 462,513.8438 L462,512.5313 Q462,511.0313 462.7219,509.7188 Q463.4438,508.4063 464.7094,507.7031 Q465.975,507 467.4,507 Q468.2625,507 469.0125,507.3 Q469.7625,507.6 470.4,508.2 Z "/><text fill="#000000" font-family="sans-serif" font-size="14.4" lengthAdjust="spacingAndGlyphs" textLength="48" x="484.8" y="518.2922">Square</text><line style="stroke: #A80036; stroke-width: 1.8000000715255737;" x1="451.2" x2="535.2" y1="531.6" y2="531.6"/><line style="stroke: #A80036; stroke-width: 1.8000000715255737;" x1="451.2" x2="535.2" y1="541.2" y2="541.2"/><!--link Panel to Drawable--><path d="M122.4072,85.2 C142.9104,85.2 169.0056,85.2 193.9584,85.2 " fill="none" id="Panel-Drawable" style="stroke: #A80036; stroke-width: 1.2000000476837158; stroke-dasharray: 7.0,7.0;"/><polygon fill="#A80036" points="200.2728,85.2,189.4728,80.4,194.2728,85.2,189.4728,90,200.2728,85.2" style="stroke: #A80036; stroke-width: 1.2000000476837158;"/><text fill="#000000" font-family="sans-serif" font-size="15.6" lengthAdjust="spacingAndGlyphs" textLength="33.6" x="144.6" y="77.3941">uses</text><!--link Drawable to Point--><path d="M285.7152,122.412 C289.7652,142.3512 294.864,167.4564 299.3112,189.3444 " fill="none" id="Drawable-Point" style="stroke: #A80036; stroke-width: 1.2000000476837158; stroke-dasharray: 7.0,7.0;"/><polygon fill="#A80036" points="300.546,195.426,303.1018,183.887,299.3525,189.5459,293.6936,185.7966,300.546,195.426" style="stroke: #A80036; stroke-width: 1.2000000476837158;"/><!--link Panel to SubPanel--><path d="M86.3904,114.216 C88.6145,140.0964 91.9331,178.7124 94.3061,206.3256 " fill="none" id="Panel-SubPanel" style="stroke: #A80036; stroke-width: 1.2000000476837158;"/><polygon fill="#A80036" points="94.8274,212.3916,98.684,201.2199,94.3131,206.4137,89.1193,202.0428,94.8274,212.3916" style="stroke: #A80036; stroke-width: 1.2000000476837158;"/><!--link ConvexPolygon to Rectangle--><path d="M493.2,294.2064 C493.2,317.1516 493.2,343.2192 493.2,362.3616 " fill="none" id="ConvexPolygon-Rectangle" style="stroke: #A80036; stroke-width: 1.2000000476837158;"/><polygon fill="none" points="484.8,294.162,493.2,270.162,501.6,294.162,484.8,294.162" style="stroke: #A80036; stroke-width: 1.2000000476837158;"/><!--link Rectangle to Square--><path d="M493.2,444.6936 C493.2,461.2344 493.2,478.8689 493.2,492.9935 " fill="none" id="Rectangle-Square" style="stroke: #A80036; stroke-width: 1.2000000476837158;"/><polygon fill="none" points="484.8,444.2604,493.2,420.2604,501.6,444.2604,484.8,444.2604" style="stroke: #A80036; stroke-width: 1.2000000476837158;"/><!--link Point to ConvexPolygon--><path d="M361.6056,241.2 C376.9272,241.2 392.25,241.2 407.5716,241.2 " fill="none" id="Point-ConvexPolygon" style="stroke: #A80036; stroke-width: 1.2000000476837158;"/><polygon fill="#FFFFFF" points="423.5388,241.2,416.3388,236.4,409.1388,241.2,416.3388,246,423.5388,241.2" style="stroke: #A80036; stroke-width: 1.2000000476837158;"/><polygon fill="#A80036" points="345.8184,241.2,356.6184,246,351.8184,241.2,356.6184,236.4,345.8184,241.2" style="stroke: #A80036; stroke-width: 1.2000000476837158;"/><line style="stroke: #A80036; stroke-width: 1.2000000476837158;" x1="351.8184" x2="361.4184" y1="241.2" y2="241.2"/><text fill="#000000" font-family="sans-serif" font-size="15.6" lengthAdjust="spacingAndGlyphs" textLength="52.8" x="361.2828" y="237.2699">vertices</text><!--
@startuml

together {
	interface Drawable {
		{abstract} + getVertices() : Point[]
	}
	
	class Point {
		- x : int
		- y : int
	}
	
	class Panel
	class SubPanel
}

Panel .> Drawable : uses
Drawable ..> Point
Panel - -> SubPanel
together {
ConvexPolygon <|- - Rectangle
Rectangle <|- - Square
Point <-o "vertices" ConvexPolygon
}
@enduml

PlantUML version 1.2017.15(Mon Jul 03 18:45:34 CEST 2017)
(GPL source distribution)
Java Runtime: OpenJDK Runtime Environment
JVM: OpenJDK 64-Bit Server VM
Java Version: 1.8.0_152-release-915-b12
Operating System: Windows 10
OS Version: 10.0
Default Encoding: Cp1252
Language: en
Country: US
--></g></svg>