<?xml version="1.0" encoding="UTF-8" standalone="no"?><svg xmlns="http://www.w3.org/2000/svg" xmlns:xlink="http://www.w3.org/1999/xlink" contentScriptType="application/ecmascript" contentStyleType="text/css" height="438px" preserveAspectRatio="none" style="width:835px;height:438px;" version="1.1" viewBox="0 0 835 438" width="835.2px" zoomAndPan="magnify"><defs><filter height="300%" id="fet8kbhpjlt4q" width="300%" x="-1" y="-1"><feGaussianBlur result="blurOut" stdDeviation="2.4000000953674316"/><feColorMatrix in="blurOut" result="blurOut2" type="matrix" values="0 0 0 0 0 0 0 0 0 0 0 0 0 0 0 0 0 0 .4 0"/><feOffset dx="4.800000190734863" dy="4.800000190734863" in="blurOut2" result="blurOut3"/><feBlend in="SourceGraphic" in2="blurOut3" mode="normal"/></filter></defs><g><!--class Employee--><rect fill="#FEFECE" filter="url(#fet8kbhpjlt4q)" height="124.0125" id="Employee" style="stroke: #A80036; stroke-width: 1.8000000715255737;" width="157.2" x="330" y="9.6"/><ellipse cx="371.22" cy="28.8" fill="#A9DCDF" rx="13.2" ry="13.2" style="stroke: #A80036; stroke-width: 1.2000000476837158;"/><path d="M373.32,30.6 L369.3638,30.6 L368.8388,31.8 L368.8388,31.8 L369.4013,31.8 L370.02,32.55 L370.02,33 L370.02,33.45 L369.4013,34.2 L368.8388,34.2 L366.57,34.2 L365.8388,34.2 L365.22,33.45 L365.22,33 L365.22,32.55 L365.8388,31.8 L366.57,31.8 L369.345,24.6 L368.295,24.6 L367.0388,24.6 L366.42,23.85 L366.42,23.4 L366.42,22.95 L367.0388,22.2 L368.295,22.2 L372.7013,22.2 L375.9263,31.8 L376.6013,31.8 L376.6013,31.8 L377.22,32.55 L377.22,33 L377.22,33.45 L376.6013,34.2 L375.9263,34.2 L373.6575,34.2 L373.0388,34.2 L372.42,33.45 L372.42,33 L372.42,32.55 L373.0388,31.8 L373.6575,31.8 L373.6575,31.8 L373.32,30.6 Z M372.6638,28.2 L371.22,23.9063 L369.9825,28.2 L372.6638,28.2 Z "/><text fill="#000000" font-family="sans-serif" font-size="14.4" font-style="italic" lengthAdjust="spacingAndGlyphs" textLength="67.2" x="393.18" y="34.6922">Employee</text><line style="stroke: #A80036; stroke-width: 1.8000000715255737;" x1="331.2" x2="486" y1="48" y2="48"/><line style="stroke: #A80036; stroke-width: 1.8000000715255737;" x1="331.2" x2="486" y1="57.6" y2="57.6"/><ellipse cx="343.2" cy="72.5016" fill="#84BE84" rx="3.6" ry="3.6" style="stroke: #038048; stroke-width: 1.2000000476837158;"/><text fill="#000000" font-family="sans-serif" font-size="13.2" font-style="italic" lengthAdjust="spacingAndGlyphs" textLength="122.4" x="354" y="76.1027">computeSalary() : int</text><ellipse cx="343.2" cy="89.1047" fill="#84BE84" rx="3.6" ry="3.6" style="stroke: #038048; stroke-width: 1.2000000476837158;"/><text fill="#000000" font-family="sans-serif" font-size="13.2" lengthAdjust="spacingAndGlyphs" textLength="104.4" x="354" y="92.7059">getName() : String</text><ellipse cx="343.2" cy="105.7078" fill="#84BE84" rx="3.6" ry="3.6" style="stroke: #038048; stroke-width: 1.2000000476837158;"/><text fill="#000000" font-family="sans-serif" font-size="13.2" lengthAdjust="spacingAndGlyphs" textLength="63.6" x="354" y="109.309">sell() : void</text><ellipse cx="343.2" cy="122.3109" fill="#84BE84" rx="3.6" ry="3.6" style="stroke: #038048; stroke-width: 1.2000000476837158;"/><text fill="#000000" font-family="sans-serif" font-size="13.2" lengthAdjust="spacingAndGlyphs" textLength="126" x="354" y="125.9121">workOneHour() : void</text><!--class FixedSalaryEmployee--><rect fill="#FEFECE" filter="url(#fet8kbhpjlt4q)" height="74.2031" id="FixedSalaryEmployee" style="stroke: #A80036; stroke-width: 1.8000000715255737;" width="337.2" x="7.2" y="205.2"/><ellipse cx="99.9" cy="224.4" fill="#ADD1B2" rx="13.2" ry="13.2" style="stroke: #A80036; stroke-width: 1.2000000476837158;"/><path d="M102.3,220.2 Q102.5438,219.6 102.825,219.3 Q103.1063,219 103.425,219 Q103.9875,219 104.3438,219.3375 Q104.7,219.675 104.7,220.4625 L104.7,222.3375 Q104.7,223.125 104.3625,223.4625 Q104.025,223.8 103.5,223.8 Q103.0313,223.8 102.7313,223.5938 Q102.4313,223.3875 102.3,222.8438 Q102.2438,222.4688 102.0375,222.2625 Q101.6625,221.8688 100.9875,221.6344 Q100.3125,221.4 99.6375,221.4 Q98.7938,221.4 98.0906,221.7375 Q97.3875,222.075 96.8438,222.825 Q96.3,223.575 96.3,224.6063 L96.3,225.7125 Q96.3,226.95 97.3125,227.775 Q98.325,228.6 100.125,228.6 Q101.1938,228.6 101.9438,228.3563 Q102.375,228.225 102.8625,227.7938 Q103.1813,227.55 103.35,227.475 Q103.5188,227.4 103.725,227.4 Q104.1188,227.4 104.4094,227.7094 Q104.7,228.0188 104.7,228.45 Q104.7,228.8625 104.2875,229.35 Q103.6875,230.0625 102.7313,230.4563 Q101.475,231 99.9375,231 Q98.1375,231 96.6938,230.2875 Q95.5313,229.725 94.7156,228.5063 Q93.9,227.2875 93.9,225.8438 L93.9,224.5313 Q93.9,223.0313 94.6219,221.7188 Q95.3438,220.4063 96.6094,219.7031 Q97.875,219 99.3,219 Q100.1625,219 100.9125,219.3 Q101.6625,219.6 102.3,220.2 Z "/><text fill="#000000" font-family="sans-serif" font-size="14.4" lengthAdjust="spacingAndGlyphs" textLength="141.6" x="124.5" y="230.2922">FixedSalaryEmployee</text><line style="stroke: #A80036; stroke-width: 1.8000000715255737;" x1="8.4" x2="343.2" y1="243.6" y2="243.6"/><line style="stroke: #A80036; stroke-width: 1.8000000715255737;" x1="8.4" x2="343.2" y1="253.2" y2="253.2"/><ellipse cx="20.4" cy="268.1016" fill="#84BE84" rx="3.6" ry="3.6" style="stroke: #038048; stroke-width: 1.2000000476837158;"/><text fill="#000000" font-family="sans-serif" font-size="13.2" lengthAdjust="spacingAndGlyphs" textLength="306" x="31.2" y="271.7027">FixedSalaryEmployee(name : String, fixedSalary : int)</text><!--class BaseSalaryPlusCommissionEmployee--><rect fill="#FEFECE" filter="url(#fet8kbhpjlt4q)" height="74.2031" id="BaseSalaryPlusCommissionEmployee" style="stroke: #A80036; stroke-width: 1.8000000715255737;" width="526.8" x="145.2" y="351.6"/><ellipse cx="274.5" cy="370.8" fill="#ADD1B2" rx="13.2" ry="13.2" style="stroke: #A80036; stroke-width: 1.2000000476837158;"/><path d="M276.9,366.6 Q277.1438,366 277.425,365.7 Q277.7063,365.4 278.025,365.4 Q278.5875,365.4 278.9438,365.7375 Q279.3,366.075 279.3,366.8625 L279.3,368.7375 Q279.3,369.525 278.9625,369.8625 Q278.625,370.2 278.1,370.2 Q277.6313,370.2 277.3313,369.9938 Q277.0313,369.7875 276.9,369.2438 Q276.8438,368.8688 276.6375,368.6625 Q276.2625,368.2688 275.5875,368.0344 Q274.9125,367.8 274.2375,367.8 Q273.3938,367.8 272.6906,368.1375 Q271.9875,368.475 271.4438,369.225 Q270.9,369.975 270.9,371.0063 L270.9,372.1125 Q270.9,373.35 271.9125,374.175 Q272.925,375 274.725,375 Q275.7938,375 276.5438,374.7563 Q276.975,374.625 277.4625,374.1938 Q277.7813,373.95 277.95,373.875 Q278.1188,373.8 278.325,373.8 Q278.7188,373.8 279.0094,374.1094 Q279.3,374.4188 279.3,374.85 Q279.3,375.2625 278.8875,375.75 Q278.2875,376.4625 277.3313,376.8563 Q276.075,377.4 274.5375,377.4 Q272.7375,377.4 271.2938,376.6875 Q270.1313,376.125 269.3156,374.9063 Q268.5,373.6875 268.5,372.2438 L268.5,370.9313 Q268.5,369.4313 269.2219,368.1188 Q269.9438,366.8063 271.2094,366.1031 Q272.475,365.4 273.9,365.4 Q274.7625,365.4 275.5125,365.7 Q276.2625,366 276.9,366.6 Z "/><text fill="#000000" font-family="sans-serif" font-size="14.4" lengthAdjust="spacingAndGlyphs" textLength="258" x="299.1" y="376.6922">BaseSalaryPlusCommissionEmployee</text><line style="stroke: #A80036; stroke-width: 1.8000000715255737;" x1="146.4" x2="670.8" y1="390" y2="390"/><line style="stroke: #A80036; stroke-width: 1.8000000715255737;" x1="146.4" x2="670.8" y1="399.6" y2="399.6"/><ellipse cx="158.4" cy="414.5016" fill="#84BE84" rx="3.6" ry="3.6" style="stroke: #038048; stroke-width: 1.2000000476837158;"/><text fill="#000000" font-family="sans-serif" font-size="13.2" lengthAdjust="spacingAndGlyphs" textLength="495.6" x="169.2" y="418.1028">BaseSalaryPlusCommissionEmployee(name : String, baseSalary : int, commission : int)</text><!--class WorkHourSalaryEmployee--><rect fill="#FEFECE" filter="url(#fet8kbhpjlt4q)" height="74.2031" id="WorkHourSalaryEmployee" style="stroke: #A80036; stroke-width: 1.8000000715255737;" width="350.4" x="472.2" y="205.2"/><ellipse cx="555.9" cy="224.4" fill="#ADD1B2" rx="13.2" ry="13.2" style="stroke: #A80036; stroke-width: 1.2000000476837158;"/><path d="M558.3,220.2 Q558.5438,219.6 558.825,219.3 Q559.1063,219 559.425,219 Q559.9875,219 560.3438,219.3375 Q560.7,219.675 560.7,220.4625 L560.7,222.3375 Q560.7,223.125 560.3625,223.4625 Q560.025,223.8 559.5,223.8 Q559.0313,223.8 558.7313,223.5938 Q558.4313,223.3875 558.3,222.8438 Q558.2438,222.4688 558.0375,222.2625 Q557.6625,221.8688 556.9875,221.6344 Q556.3125,221.4 555.6375,221.4 Q554.7938,221.4 554.0906,221.7375 Q553.3875,222.075 552.8438,222.825 Q552.3,223.575 552.3,224.6063 L552.3,225.7125 Q552.3,226.95 553.3125,227.775 Q554.325,228.6 556.125,228.6 Q557.1938,228.6 557.9438,228.3563 Q558.375,228.225 558.8625,227.7938 Q559.1813,227.55 559.35,227.475 Q559.5188,227.4 559.725,227.4 Q560.1188,227.4 560.4094,227.7094 Q560.7,228.0188 560.7,228.45 Q560.7,228.8625 560.2875,229.35 Q559.6875,230.0625 558.7313,230.4563 Q557.475,231 555.9375,231 Q554.1375,231 552.6938,230.2875 Q551.5313,229.725 550.7156,228.5063 Q549.9,227.2875 549.9,225.8438 L549.9,224.5313 Q549.9,223.0313 550.6219,221.7188 Q551.3438,220.4063 552.6094,219.7031 Q553.875,219 555.3,219 Q556.1625,219 556.9125,219.3 Q557.6625,219.6 558.3,220.2 Z "/><text fill="#000000" font-family="sans-serif" font-size="14.4" lengthAdjust="spacingAndGlyphs" textLength="172.8" x="580.5" y="230.2922">WorkHourSalaryEmployee</text><line style="stroke: #A80036; stroke-width: 1.8000000715255737;" x1="473.4" x2="821.4" y1="243.6" y2="243.6"/><line style="stroke: #A80036; stroke-width: 1.8000000715255737;" x1="473.4" x2="821.4" y1="253.2" y2="253.2"/><ellipse cx="485.4" cy="268.1016" fill="#84BE84" rx="3.6" ry="3.6" style="stroke: #038048; stroke-width: 1.2000000476837158;"/><text fill="#000000" font-family="sans-serif" font-size="13.2" lengthAdjust="spacingAndGlyphs" textLength="319.2" x="496.2" y="271.7027">WorkHourSalaryEmployee(name : String, hourRate : int)</text><!--link Employee to FixedSalaryEmployee--><path d="M309.9924,144.0144 C280.9212,165.0684 250.3332,187.2216 225.7152,205.05 " fill="none" id="Employee-FixedSalaryEmployee" style="stroke: #A80036; stroke-width: 1.2000000476837158;"/><polygon fill="none" points="305.4192,136.9548,329.784,129.6804,315.2736,150.5604,305.4192,136.9548" style="stroke: #A80036; stroke-width: 1.2000000476837158;"/><!--link Employee to BaseSalaryPlusCommissionEmployee--><path d="M408.6,157.4208 C408.6,220.9164 408.6,304.5984 408.6,351.5807 " fill="none" id="Employee-BaseSalaryPlusCommissionEmployee" style="stroke: #A80036; stroke-width: 1.2000000476837158;"/><polygon fill="none" points="400.2,157.3356,408.6,133.3356,417,157.3356,400.2,157.3356" style="stroke: #A80036; stroke-width: 1.2000000476837158;"/><!--link Employee to WorkHourSalaryEmployee--><path d="M507.1596,142.1856 C537.69,163.7412 570.096,186.6216 596.058,204.9504 " fill="none" id="Employee-WorkHourSalaryEmployee" style="stroke: #A80036; stroke-width: 1.2000000476837158;"/><polygon fill="none" points="502.2144,148.9776,487.4544,128.2728,511.9044,135.2532,502.2144,148.9776" style="stroke: #A80036; stroke-width: 1.2000000476837158;"/><!--
@startuml

abstract class Employee {
	{abstract} + computeSalary() : int
	+ getName() : String
	+ sell() : void
	+ workOneHour() : void
}

class FixedSalaryEmployee {
	+ FixedSalaryEmployee(name : String, fixedSalary : int)
}

class BaseSalaryPlusCommissionEmployee {
	+ BaseSalaryPlusCommissionEmployee(name : String, baseSalary : int, commission : int)
}

class WorkHourSalaryEmployee {
	+ WorkHourSalaryEmployee(name : String, hourRate : int)
}

Employee <|- - FixedSalaryEmployee
Employee <|- - - BaseSalaryPlusCommissionEmployee
Employee <|- - WorkHourSalaryEmployee

@enduml

PlantUML version 1.2017.15(Mon Jul 03 18:45:34 CEST 2017)
(GPL source distribution)
Java Runtime: OpenJDK Runtime Environment
JVM: OpenJDK 64-Bit Server VM
Java Version: 1.8.0_152-release-915-b12
Operating System: Windows 10
OS Version: 10.0
Default Encoding: Cp1252
Language: en
Country: US
--></g></svg>