<?xml version="1.0" encoding="UTF-8" standalone="no"?><svg xmlns="http://www.w3.org/2000/svg" xmlns:xlink="http://www.w3.org/1999/xlink" contentScriptType="application/ecmascript" contentStyleType="text/css" height="568.8px" preserveAspectRatio="none" style="width:835px;height:568px;" version="1.1" viewBox="0 0 835 568" width="835.2px" zoomAndPan="magnify"><defs><filter height="300%" id="f1ohr320likor5" width="300%" x="-1" y="-1"><feGaussianBlur result="blurOut" stdDeviation="2.4000000953674316"/><feColorMatrix in="blurOut" result="blurOut2" type="matrix" values="0 0 0 0 0 0 0 0 0 0 0 0 0 0 0 0 0 0 .4 0"/><feOffset dx="4.800000190734863" dy="4.800000190734863" in="blurOut2" result="blurOut3"/><feBlend in="SourceGraphic" in2="blurOut3" mode="normal"/></filter></defs><g><!--class Payable--><rect fill="#FEFECE" filter="url(#f1ohr320likor5)" height="74.2031" id="Payable" style="stroke: #A80036; stroke-width: 1.8000000715255737;" width="153.6" x="462.6" y="9.6"/><ellipse cx="507.6" cy="28.8" fill="#B4A7E5" rx="13.2" ry="13.2" style="stroke: #A80036; stroke-width: 1.2000000476837158;"/><path d="M508.8,25.2 L508.8,32.4 L511.2,32.4 L511.7813,32.4 L512.4,33.15 L512.4,33.6 L512.4,34.05 L511.7813,34.8 L511.2,34.8 L504,34.8 L503.4188,34.8 L502.8,34.05 L502.8,33.6 L502.8,33.15 L503.4188,32.4 L504,32.4 L506.4,32.4 L506.4,25.2 L504,25.2 L503.4188,25.2 L502.8,24.45 L502.8,24 L502.8,23.55 L503.4188,22.8 L504,22.8 L511.2,22.8 L511.7813,22.8 L512.4,23.55 L512.4,24 L512.4,24.45 L511.7813,25.2 L511.2,25.2 L508.8,25.2 Z "/><text fill="#000000" font-family="sans-serif" font-size="14.4" font-style="italic" lengthAdjust="spacingAndGlyphs" textLength="55.2" x="530.4" y="34.6922">Payable</text><line style="stroke: #A80036; stroke-width: 1.8000000715255737;" x1="463.8" x2="615" y1="48" y2="48"/><line style="stroke: #A80036; stroke-width: 1.8000000715255737;" x1="463.8" x2="615" y1="57.6" y2="57.6"/><ellipse cx="475.8" cy="72.5016" fill="#84BE84" rx="3.6" ry="3.6" style="stroke: #038048; stroke-width: 1.2000000476837158;"/><text fill="#000000" font-family="sans-serif" font-size="13.2" font-style="italic" lengthAdjust="spacingAndGlyphs" textLength="122.4" x="486.6" y="76.1027">computeSalary() : int</text><!--class Employee--><rect fill="#FEFECE" filter="url(#f1ohr320likor5)" height="107.4094" id="Employee" style="stroke: #A80036; stroke-width: 1.8000000715255737;" width="157.2" x="330" y="156"/><ellipse cx="371.22" cy="175.2" fill="#A9DCDF" rx="13.2" ry="13.2" style="stroke: #A80036; stroke-width: 1.2000000476837158;"/><path d="M373.32,177 L369.3638,177 L368.8388,178.2 L368.8388,178.2 L369.4013,178.2 L370.02,178.95 L370.02,179.4 L370.02,179.85 L369.4013,180.6 L368.8388,180.6 L366.57,180.6 L365.8388,180.6 L365.22,179.85 L365.22,179.4 L365.22,178.95 L365.8388,178.2 L366.57,178.2 L369.345,171 L368.295,171 L367.0388,171 L366.42,170.25 L366.42,169.8 L366.42,169.35 L367.0388,168.6 L368.295,168.6 L372.7013,168.6 L375.9263,178.2 L376.6013,178.2 L376.6013,178.2 L377.22,178.95 L377.22,179.4 L377.22,179.85 L376.6013,180.6 L375.9263,180.6 L373.6575,180.6 L373.0388,180.6 L372.42,179.85 L372.42,179.4 L372.42,178.95 L373.0388,178.2 L373.6575,178.2 L373.6575,178.2 L373.32,177 Z M372.6638,174.6 L371.22,170.3063 L369.9825,174.6 L372.6638,174.6 Z "/><text fill="#000000" font-family="sans-serif" font-size="14.4" font-style="italic" lengthAdjust="spacingAndGlyphs" textLength="67.2" x="393.18" y="181.0922">Employee</text><line style="stroke: #A80036; stroke-width: 1.8000000715255737;" x1="331.2" x2="486" y1="194.4" y2="194.4"/><line style="stroke: #A80036; stroke-width: 1.8000000715255737;" x1="331.2" x2="486" y1="204" y2="204"/><ellipse cx="343.2" cy="218.9016" fill="#84BE84" rx="3.6" ry="3.6" style="stroke: #038048; stroke-width: 1.2000000476837158;"/><text fill="#000000" font-family="sans-serif" font-size="13.2" lengthAdjust="spacingAndGlyphs" textLength="104.4" x="354" y="222.5027">getName() : String</text><ellipse cx="343.2" cy="235.5047" fill="#84BE84" rx="3.6" ry="3.6" style="stroke: #038048; stroke-width: 1.2000000476837158;"/><text fill="#000000" font-family="sans-serif" font-size="13.2" lengthAdjust="spacingAndGlyphs" textLength="63.6" x="354" y="239.1059">sell() : void</text><ellipse cx="343.2" cy="252.1078" fill="#84BE84" rx="3.6" ry="3.6" style="stroke: #038048; stroke-width: 1.2000000476837158;"/><text fill="#000000" font-family="sans-serif" font-size="13.2" lengthAdjust="spacingAndGlyphs" textLength="126" x="354" y="255.709">workOneHour() : void</text><!--class FixedSalaryEmployee--><rect fill="#FEFECE" filter="url(#f1ohr320likor5)" height="74.2031" id="FixedSalaryEmployee" style="stroke: #A80036; stroke-width: 1.8000000715255737;" width="337.2" x="7.2" y="336"/><ellipse cx="99.9" cy="355.2" fill="#ADD1B2" rx="13.2" ry="13.2" style="stroke: #A80036; stroke-width: 1.2000000476837158;"/><path d="M102.3,351 Q102.5438,350.4 102.825,350.1 Q103.1063,349.8 103.425,349.8 Q103.9875,349.8 104.3438,350.1375 Q104.7,350.475 104.7,351.2625 L104.7,353.1375 Q104.7,353.925 104.3625,354.2625 Q104.025,354.6 103.5,354.6 Q103.0313,354.6 102.7313,354.3938 Q102.4313,354.1875 102.3,353.6438 Q102.2438,353.2688 102.0375,353.0625 Q101.6625,352.6688 100.9875,352.4344 Q100.3125,352.2 99.6375,352.2 Q98.7938,352.2 98.0906,352.5375 Q97.3875,352.875 96.8438,353.625 Q96.3,354.375 96.3,355.4063 L96.3,356.5125 Q96.3,357.75 97.3125,358.575 Q98.325,359.4 100.125,359.4 Q101.1938,359.4 101.9438,359.1563 Q102.375,359.025 102.8625,358.5938 Q103.1813,358.35 103.35,358.275 Q103.5188,358.2 103.725,358.2 Q104.1188,358.2 104.4094,358.5094 Q104.7,358.8188 104.7,359.25 Q104.7,359.6625 104.2875,360.15 Q103.6875,360.8625 102.7313,361.2563 Q101.475,361.8 99.9375,361.8 Q98.1375,361.8 96.6938,361.0875 Q95.5313,360.525 94.7156,359.3063 Q93.9,358.0875 93.9,356.6438 L93.9,355.3313 Q93.9,353.8313 94.6219,352.5188 Q95.3438,351.2063 96.6094,350.5031 Q97.875,349.8 99.3,349.8 Q100.1625,349.8 100.9125,350.1 Q101.6625,350.4 102.3,351 Z "/><text fill="#000000" font-family="sans-serif" font-size="14.4" lengthAdjust="spacingAndGlyphs" textLength="141.6" x="124.5" y="361.0922">FixedSalaryEmployee</text><line style="stroke: #A80036; stroke-width: 1.8000000715255737;" x1="8.4" x2="343.2" y1="374.4" y2="374.4"/><line style="stroke: #A80036; stroke-width: 1.8000000715255737;" x1="8.4" x2="343.2" y1="384" y2="384"/><ellipse cx="20.4" cy="398.9016" fill="#84BE84" rx="3.6" ry="3.6" style="stroke: #038048; stroke-width: 1.2000000476837158;"/><text fill="#000000" font-family="sans-serif" font-size="13.2" lengthAdjust="spacingAndGlyphs" textLength="306" x="31.2" y="402.5028">FixedSalaryEmployee(name : String, fixedSalary : int)</text><!--class BaseSalaryPlusCommissionEmployee--><rect fill="#FEFECE" filter="url(#f1ohr320likor5)" height="74.2031" id="BaseSalaryPlusCommissionEmployee" style="stroke: #A80036; stroke-width: 1.8000000715255737;" width="526.8" x="145.2" y="482.4"/><ellipse cx="274.5" cy="501.6" fill="#ADD1B2" rx="13.2" ry="13.2" style="stroke: #A80036; stroke-width: 1.2000000476837158;"/><path d="M276.9,497.4 Q277.1438,496.8 277.425,496.5 Q277.7063,496.2 278.025,496.2 Q278.5875,496.2 278.9438,496.5375 Q279.3,496.875 279.3,497.6625 L279.3,499.5375 Q279.3,500.325 278.9625,500.6625 Q278.625,501 278.1,501 Q277.6313,501 277.3313,500.7938 Q277.0313,500.5875 276.9,500.0438 Q276.8438,499.6688 276.6375,499.4625 Q276.2625,499.0688 275.5875,498.8344 Q274.9125,498.6 274.2375,498.6 Q273.3938,498.6 272.6906,498.9375 Q271.9875,499.275 271.4438,500.025 Q270.9,500.775 270.9,501.8063 L270.9,502.9125 Q270.9,504.15 271.9125,504.975 Q272.925,505.8 274.725,505.8 Q275.7938,505.8 276.5438,505.5563 Q276.975,505.425 277.4625,504.9938 Q277.7813,504.75 277.95,504.675 Q278.1188,504.6 278.325,504.6 Q278.7188,504.6 279.0094,504.9094 Q279.3,505.2188 279.3,505.65 Q279.3,506.0625 278.8875,506.55 Q278.2875,507.2625 277.3313,507.6563 Q276.075,508.2 274.5375,508.2 Q272.7375,508.2 271.2938,507.4875 Q270.1313,506.925 269.3156,505.7063 Q268.5,504.4875 268.5,503.0438 L268.5,501.7313 Q268.5,500.2313 269.2219,498.9188 Q269.9438,497.6063 271.2094,496.9031 Q272.475,496.2 273.9,496.2 Q274.7625,496.2 275.5125,496.5 Q276.2625,496.8 276.9,497.4 Z "/><text fill="#000000" font-family="sans-serif" font-size="14.4" lengthAdjust="spacingAndGlyphs" textLength="258" x="299.1" y="507.4922">BaseSalaryPlusCommissionEmployee</text><line style="stroke: #A80036; stroke-width: 1.8000000715255737;" x1="146.4" x2="670.8" y1="520.8" y2="520.8"/><line style="stroke: #A80036; stroke-width: 1.8000000715255737;" x1="146.4" x2="670.8" y1="530.4" y2="530.4"/><ellipse cx="158.4" cy="545.3016" fill="#84BE84" rx="3.6" ry="3.6" style="stroke: #038048; stroke-width: 1.2000000476837158;"/><text fill="#000000" font-family="sans-serif" font-size="13.2" lengthAdjust="spacingAndGlyphs" textLength="495.6" x="169.2" y="548.9028">BaseSalaryPlusCommissionEmployee(name : String, baseSalary : int, commission : int)</text><!--class WorkHourSalaryEmployee--><rect fill="#FEFECE" filter="url(#f1ohr320likor5)" height="74.2031" id="WorkHourSalaryEmployee" style="stroke: #A80036; stroke-width: 1.8000000715255737;" width="350.4" x="472.2" y="336"/><ellipse cx="555.9" cy="355.2" fill="#ADD1B2" rx="13.2" ry="13.2" style="stroke: #A80036; stroke-width: 1.2000000476837158;"/><path d="M558.3,351 Q558.5438,350.4 558.825,350.1 Q559.1063,349.8 559.425,349.8 Q559.9875,349.8 560.3438,350.1375 Q560.7,350.475 560.7,351.2625 L560.7,353.1375 Q560.7,353.925 560.3625,354.2625 Q560.025,354.6 559.5,354.6 Q559.0313,354.6 558.7313,354.3938 Q558.4313,354.1875 558.3,353.6438 Q558.2438,353.2688 558.0375,353.0625 Q557.6625,352.6688 556.9875,352.4344 Q556.3125,352.2 555.6375,352.2 Q554.7938,352.2 554.0906,352.5375 Q553.3875,352.875 552.8438,353.625 Q552.3,354.375 552.3,355.4063 L552.3,356.5125 Q552.3,357.75 553.3125,358.575 Q554.325,359.4 556.125,359.4 Q557.1938,359.4 557.9438,359.1563 Q558.375,359.025 558.8625,358.5938 Q559.1813,358.35 559.35,358.275 Q559.5188,358.2 559.725,358.2 Q560.1188,358.2 560.4094,358.5094 Q560.7,358.8188 560.7,359.25 Q560.7,359.6625 560.2875,360.15 Q559.6875,360.8625 558.7313,361.2563 Q557.475,361.8 555.9375,361.8 Q554.1375,361.8 552.6938,361.0875 Q551.5313,360.525 550.7156,359.3063 Q549.9,358.0875 549.9,356.6438 L549.9,355.3313 Q549.9,353.8313 550.6219,352.5188 Q551.3438,351.2063 552.6094,350.5031 Q553.875,349.8 555.3,349.8 Q556.1625,349.8 556.9125,350.1 Q557.6625,350.4 558.3,351 Z "/><text fill="#000000" font-family="sans-serif" font-size="14.4" lengthAdjust="spacingAndGlyphs" textLength="172.8" x="580.5" y="361.0922">WorkHourSalaryEmployee</text><line style="stroke: #A80036; stroke-width: 1.8000000715255737;" x1="473.4" x2="821.4" y1="374.4" y2="374.4"/><line style="stroke: #A80036; stroke-width: 1.8000000715255737;" x1="473.4" x2="821.4" y1="384" y2="384"/><ellipse cx="485.4" cy="398.9016" fill="#84BE84" rx="3.6" ry="3.6" style="stroke: #038048; stroke-width: 1.2000000476837158;"/><text fill="#000000" font-family="sans-serif" font-size="13.2" lengthAdjust="spacingAndGlyphs" textLength="319.2" x="496.2" y="402.5028">WorkHourSalaryEmployee(name : String, hourRate : int)</text><!--class ProductionWorker--><rect fill="#FEFECE" filter="url(#f1ohr320likor5)" height="90.8063" id="ProductionWorker" style="stroke: #A80036; stroke-width: 1.8000000715255737;" width="280.8" x="529.8" y="164.4"/><ellipse cx="606.3" cy="183.6" fill="#ADD1B2" rx="13.2" ry="13.2" style="stroke: #A80036; stroke-width: 1.2000000476837158;"/><path d="M608.7,179.4 Q608.9438,178.8 609.225,178.5 Q609.5063,178.2 609.825,178.2 Q610.3875,178.2 610.7438,178.5375 Q611.1,178.875 611.1,179.6625 L611.1,181.5375 Q611.1,182.325 610.7625,182.6625 Q610.425,183 609.9,183 Q609.4313,183 609.1313,182.7938 Q608.8313,182.5875 608.7,182.0438 Q608.6438,181.6688 608.4375,181.4625 Q608.0625,181.0688 607.3875,180.8344 Q606.7125,180.6 606.0375,180.6 Q605.1938,180.6 604.4906,180.9375 Q603.7875,181.275 603.2438,182.025 Q602.7,182.775 602.7,183.8063 L602.7,184.9125 Q602.7,186.15 603.7125,186.975 Q604.725,187.8 606.525,187.8 Q607.5938,187.8 608.3438,187.5563 Q608.775,187.425 609.2625,186.9938 Q609.5813,186.75 609.75,186.675 Q609.9188,186.6 610.125,186.6 Q610.5188,186.6 610.8094,186.9094 Q611.1,187.2188 611.1,187.65 Q611.1,188.0625 610.6875,188.55 Q610.0875,189.2625 609.1313,189.6563 Q607.875,190.2 606.3375,190.2 Q604.5375,190.2 603.0938,189.4875 Q601.9313,188.925 601.1156,187.7063 Q600.3,186.4875 600.3,185.0438 L600.3,183.7313 Q600.3,182.2313 601.0219,180.9188 Q601.7438,179.6063 603.0094,178.9031 Q604.275,178.2 605.7,178.2 Q606.5625,178.2 607.3125,178.5 Q608.0625,178.8 608.7,179.4 Z "/><text fill="#000000" font-family="sans-serif" font-size="14.4" lengthAdjust="spacingAndGlyphs" textLength="117.6" x="630.9" y="189.4922">ProductionWorker</text><line style="stroke: #A80036; stroke-width: 1.8000000715255737;" x1="531" x2="809.4" y1="202.8" y2="202.8"/><line style="stroke: #A80036; stroke-width: 1.8000000715255737;" x1="531" x2="809.4" y1="212.4" y2="212.4"/><ellipse cx="543" cy="227.3016" fill="#84BE84" rx="3.6" ry="3.6" style="stroke: #038048; stroke-width: 1.2000000476837158;"/><text fill="#000000" font-family="sans-serif" font-size="13.2" lengthAdjust="spacingAndGlyphs" textLength="249.6" x="553.8" y="230.9027">ProductionWorker(producedPieceRate : int)</text><ellipse cx="543" cy="243.9047" fill="#84BE84" rx="3.6" ry="3.6" style="stroke: #038048; stroke-width: 1.2000000476837158;"/><text fill="#000000" font-family="sans-serif" font-size="13.2" lengthAdjust="spacingAndGlyphs" textLength="147.6" x="553.8" y="247.5059">produceOnePiece() : void</text><!--link Payable to Employee--><path d="M494.5836,103.0956 C480.7284,120.1284 465.5004,138.8484 451.7604,155.7408 " fill="none" id="Payable-Employee" style="stroke: #A80036; stroke-width: 1.2000000476837158;"/><polygon fill="none" points="488.3844,97.404,510.0456,84.0864,501.4176,108.006,488.3844,97.404" style="stroke: #A80036; stroke-width: 1.2000000476837158;"/><!--link Employee to FixedSalaryEmployee--><path d="M312.0204,277.9092 C283.2864,297.756 252.8928,318.75 228.1224,335.8596 " fill="none" id="Employee-FixedSalaryEmployee" style="stroke: #A80036; stroke-width: 1.2000000476837158;"/><polygon fill="none" points="307.5288,270.8028,332.0496,264.0744,317.0772,284.6256,307.5288,270.8028" style="stroke: #A80036; stroke-width: 1.2000000476837158;"/><!--link Employee to BaseSalaryPlusCommissionEmployee--><path d="M408.6,288.2172 C408.6,350.2452 408.6,434.6652 408.6,482.128 " fill="none" id="Employee-BaseSalaryPlusCommissionEmployee" style="stroke: #A80036; stroke-width: 1.2000000476837158;"/><polygon fill="none" points="400.2,288.0096,408.6,264.0096,417,288.0096,400.2,288.0096" style="stroke: #A80036; stroke-width: 1.2000000476837158;"/><!--link Employee to WorkHourSalaryEmployee--><path d="M507.2412,277.6224 C536.8416,297.5532 568.1976,318.6672 593.7288,335.8596 " fill="none" id="Employee-WorkHourSalaryEmployee" style="stroke: #A80036; stroke-width: 1.2000000476837158;"/><polygon fill="none" points="502.338,284.4468,487.1232,264.0744,511.722,270.5124,502.338,284.4468" style="stroke: #A80036; stroke-width: 1.2000000476837158;"/><!--link Payable to ProductionWorker--><path d="M583.932,102.7452 C600.2268,122.778 618.4524,145.1844 633.9384,164.2212 " fill="none" id="Payable-ProductionWorker" style="stroke: #A80036; stroke-width: 1.2000000476837158;"/><polygon fill="none" points="577.3824,108.006,568.7544,84.0864,590.4156,97.404,577.3824,108.006" style="stroke: #A80036; stroke-width: 1.2000000476837158;"/><!--
@startuml

interface Payable {
	{abstract} + computeSalary() : int
}

abstract class Employee {
	+ getName() : String
	+ sell() : void
	+ workOneHour() : void
}

class FixedSalaryEmployee {
	+ FixedSalaryEmployee(name : String, fixedSalary : int)
}

class BaseSalaryPlusCommissionEmployee {
	+ BaseSalaryPlusCommissionEmployee(name : String, baseSalary : int, commission : int)
}

class WorkHourSalaryEmployee {
	+ WorkHourSalaryEmployee(name : String, hourRate : int)
}

class ProductionWorker {
	+ ProductionWorker(producedPieceRate : int)
	+ produceOnePiece() : void
}

Payable <|- - Employee
Employee <|- - FixedSalaryEmployee
Employee <|- - - BaseSalaryPlusCommissionEmployee
Employee <|- - WorkHourSalaryEmployee
Payable <|- - ProductionWorker

@enduml

PlantUML version 1.2017.15(Mon Jul 03 18:45:34 CEST 2017)
(GPL source distribution)
Java Runtime: OpenJDK Runtime Environment
JVM: OpenJDK 64-Bit Server VM
Java Version: 1.8.0_152-release-915-b12
Operating System: Windows 10
OS Version: 10.0
Default Encoding: Cp1252
Language: en
Country: US
--></g></svg>